Input #0, mov,mp4,m4a,3gp,3g2,mj2, from '/Users/fan/Documents/视频工厂/素材录制/语音样本_04-25-2026 22-19-11_1.MP4':
  Metadata:
    major_brand     : mp42
    minor_version   : 1
    compatible_brands: isommp41mp42
    creation_time   : 2026-04-25T14:19:11.000000Z
  Duration: 00:00:30.68, start: 0.000000, bitrate: 15064 kb/s
  Stream #0:0[0x1](und): Video: hevc (Main) (hvc1 / 0x31637668), yuvj420p(pc, bt709, progressive), 1180x2556, 14940 kb/s, 60.03 fps, 60 tbr, 600 tbn (default)
    Metadata:
      creation_time   : 2026-04-25T14:19:11.000000Z
      handler_name    : Core Media Video
      vendor_id       : [0][0][0][0]
  Stream #0:1[0x2](und): Audio: aac (LC) (mp4a / 0x6134706D), 44100 Hz, stereo, fltp, 107 kb/s (default)
    Metadata:
      creation_time   : 2026-04-25T14:19:11.000000Z
      handler_name    : Core Media Audio
      vendor_id       : [0][0][0][0]
Output #0, null, to 'pipe:':
  Metadata:
    major_brand     : mp42
    minor_version   : 1
    compatible_brands: isommp41mp42
    encoder         : Lavf60.3.100
  Stream #0:0(und): Video: hevc (Main) (hvc1 / 0x31637668), yuvj420p(pc, bt709, progressive), 1180x2556, q=2-31, 14940 kb/s, 60.03 fps, 60 tbr, 600 tbn (default)
    Metadata:
      creation_time   : 2026-04-25T14:19:11.000000Z
      handler_name    : Core Media Video
      vendor_id       : [0][0][0][0]
  Stream #0:1(und): Audio: aac (LC) (mp4a / 0x6134706D), 44100 Hz, stereo, fltp, 107 kb/s (default)
    Metadata:
      creation_time   : 2026-04-25T14:19:11.000000Z
      handler_name    : Core Media Audio
      vendor_id       : [0][0][0][0]
Stream mapping:
  Stream #0:0 -> #0:0 (copy)
  Stream #0:1 -> #0:1 (copy)
Press [q] to stop, [?] for help
frame=    0 fps=0.0 q=-1.0 size=       0kB time=-00:00:00.06 bitrate=  -0.0kbits/s speed=N/A
frame= 1843 fps=0.0 q=-1.0 Lsize=N/A time=00:00:30.67 bitrate=N/A speed= 524x
video:55989kB audio:404kB subtitle:0kB other streams:0kB global headers:0kB muxing overhead: unknown
